<svg width="115" height="137" viewBox="0 0 115 137" fill="none" xmlns="http://www.w3.org/2000/svg">
<path fill-rule="evenodd" clip-rule="evenodd" d="M57.5 134C87.7266 134 112 110.595 112 82C112 53.4055 87.7266 30 57.5 30C27.2734 30 3 53.4055 3 82C3 110.595 27.2734 134 57.5 134ZM57.5 137C89.2564 137 115 112.376 115 82C115 51.6243 89.2564 27 57.5 27C25.7436 27 0 51.6243 0 82C0 112.376 25.7436 137 57.5 137Z" fill="#9ABBA1"/>
<ellipse cx="58" cy="19.2941" rx="20" ry="19.2941" fill="#9ABBA1"/>
<path fill-rule="evenodd" clip-rule="evenodd" d="M100 82C100 104.644 80.9721 123 57.5 123C34.0279 123 15 104.644 15 82C15 59.3563 34.0279 41 57.5 41C80.9721 41 100 59.3563 100 82ZM43.4952 62.7114C43.9365 64.1409 42.3629 65.896 39.9804 66.6315C37.5979 67.367 35.3088 66.8044 34.8675 65.3749C34.4262 63.9454 35.9998 62.1904 38.3823 61.4549C40.7648 60.7194 43.0539 61.282 43.4952 62.7114ZM75.5119 66.6315C73.1294 65.896 71.5558 64.1409 71.9971 62.7114C72.4384 61.282 74.7275 60.7194 77.11 61.4549C79.4924 62.1904 81.0661 63.9454 80.6248 65.3749C80.1835 66.8044 77.8943 67.367 75.5119 66.6315ZM29.4143 75.037C30.2222 74.8541 31.0255 75.3609 31.2084 76.1689L31.9746 79.5541C32.0765 80.0044 32.69 80.0719 32.8874 79.6546C33.713 77.9086 35.7724 77.1908 37.4976 77.9344C39.1394 78.6421 41.4477 79.5614 43.0811 79.9294C46.5157 80.7034 50.1065 81.0244 52.8588 81.1494C54.2302 81.2116 55.3831 81.2248 56.1906 81.2225C56.5942 81.2213 56.9109 81.2163 57.125 81.2116C57.232 81.2093 57.3134 81.207 57.367 81.2054L57.4264 81.2035L57.4303 81.2034C57.4534 81.2023 57.4766 81.2018 57.5 81.2018C57.5233 81.2018 57.5466 81.2023 57.5697 81.2034L57.5736 81.2035L57.633 81.2054C57.6866 81.207 57.7679 81.2093 57.875 81.2116C58.0891 81.2163 58.4058 81.2213 58.8094 81.2225C59.6169 81.2248 60.7697 81.2116 62.1412 81.1494C64.8935 81.0244 68.4843 80.7034 71.9189 79.9294C73.5523 79.5614 75.8606 78.6421 77.5024 77.9344C79.2276 77.1908 81.287 77.9086 82.1126 79.6546C82.31 80.0719 82.9235 80.0044 83.0254 79.5541L83.7916 76.1689C83.9745 75.3609 84.7777 74.8541 85.5857 75.037C86.3937 75.2199 86.9005 76.0231 86.7176 76.8311L85.9514 80.2164C85.22 83.4479 80.8169 83.9322 79.4006 80.937C79.2883 80.6996 78.9794 80.5646 78.6899 80.6894C77.0533 81.3949 74.5141 82.4199 72.5784 82.856C68.9061 83.6835 65.1226 84.0171 62.2773 84.1463C60.8499 84.2111 59.6482 84.2249 58.8007 84.2225C58.3768 84.2212 58.0411 84.216 57.8095 84.2109C57.6937 84.2084 57.6039 84.2059 57.5421 84.204L57.5 84.2027L57.4579 84.204C57.3961 84.2059 57.3063 84.2084 57.1905 84.2109C56.9589 84.216 56.6232 84.2212 56.1993 84.2225C55.3518 84.2249 54.1501 84.2111 52.7227 84.1463C49.8774 84.0171 46.0939 83.6835 42.4216 82.856C40.4859 82.4199 37.9467 81.3949 36.3101 80.6894C36.0206 80.5646 35.7117 80.6996 35.5994 80.937C34.183 83.9322 29.78 83.4479 29.0486 80.2164L28.2824 76.8311C28.0995 76.0231 28.6063 75.2199 29.4143 75.037Z" fill="#9ABBA1"/>
<path d="M58.4912 52.4008C61.0836 53.9287 60.1437 57.7518 57.1643 57.675C44.344 57.3445 23.3521 55.6399 17.074 48.2236C10.8911 40.92 10.7097 32.9956 11.2672 28.5492C11.5026 26.6721 13.4935 25.8802 15.1106 26.8333L58.4912 52.4008Z" fill="#9ABBA1"/>
<path d="M56.5088 52.4008C53.9164 53.9287 54.8563 57.7518 57.8358 57.675C70.656 57.3445 91.6479 55.6399 97.9261 48.2236C104.109 40.92 104.29 32.9956 103.733 28.5492C103.497 26.6721 101.507 25.8802 99.8895 26.8333L56.5088 52.4008Z" fill="#9ABBA1"/>
</svg>
